<?xml version="1.0" encoding="utf-8"?>
<!-- Generator: Adobe Illustrator 18.1.1, SVG Export Plug-In . SVG Version: 6.00 Build 0)  -->
<svg version="1.1" id="Layer_1" xmlns="http://www.w3.org/2000/svg" xmlns:xlink="http://www.w3.org/1999/xlink" x="0px" y="0px"
	 viewBox="0 0 637 637" enable-background="new 0 0 637 637" xml:space="preserve">
<circle fill="#E72D2D" cx="318.5" cy="318.5" r="318.5"/>
<g>
	<path fill="#FFFFFF" d="M315.5,190.6l21.7,6.6l24.4,48.2l29-17.2l32.3,41.6l-31-24.4l-25.7,17.2L317.3,223l-13.7,51.1L283,224.3
		L215.6,235l48.3-42.4l0.5-2H74.5v140.6h131c5.5-30.8,33-63.4,49.4-78.4l0.4-0.3l10.5-7.4l4.7,5.6c2,2.4,3,7.1,2.8,9.3
		c-0.5,14.6,5.7,23.8,14.3,36.5c1.7,2.5,3.4,5,5.1,7.7c4,6.1,9.3,15.8,11.5,27h258.4V190.6H315.5z"/>
	<path fill="#FFFFFF" d="M260.2,258.6c-13.8,12.6-25.9,27.6-35.1,43.8c-8.6,15-16.8,34.4-10.8,51.8c6.5,18.6,29.2,28.5,47.8,25.9
		c23-3.2,38.8-24.7,34.1-47.7c-3.1-15.3-13-27.2-21-40.1c-3.3-5.4-6.3-11.1-8.1-17.2c-1-3.5-1.6-7-1.8-10.6c-0.1-2.2,0.7-6.8-1-8.8
		 M237.2,362.9c-14.6-10.2-10.5-28.4-4.4-41.9c2.2,15.8,15.8,18.8,24.1,30.3c3.6,4.9,3.5,8.9-1.6,12.4
		C249.2,367.9,243.1,367.4,237.2,362.9z M237.2,362.9"/>
	<g>
		<path fill="#FFFFFF" d="M535.3,348h-231c-1.1,7.1-3.8,13.9-8.1,19.9c-7.7,10.9-19.7,18.2-33.1,20c-2.3,0.3-4.7,0.5-7.1,0.5
			c-18.5,0-41.8-9.9-49.3-31.7c-1-2.8-1.6-5.7-2-8.7h-61.4c-9.7,0-17.6,7.6-18.3,17.1c-12.9,5.6-21.3,14.8-21.3,25.1
			c0,14.4,16.2,26.4,38.2,29.9c15.5,15.2,57.3,26.1,106.5,26.1c57.7,0,105.2-15,112.1-34.3h141.8c21.3,0,38.6-17.3,38.6-38.6v-19.7
			C541.1,350.6,538.5,348,535.3,348z"/>
	</g>
</g>
</svg>
