<?xml version="1.0" encoding="utf-8"?>
<!-- Generator: Adobe Illustrator 18.1.1, SVG Export Plug-In . SVG Version: 6.00 Build 0)  -->
<svg version="1.1" id="Layer_1" xmlns="http://www.w3.org/2000/svg" xmlns:xlink="http://www.w3.org/1999/xlink" x="0px" y="0px"
	 viewBox="0 0 637 637" enable-background="new 0 0 637 637" xml:space="preserve">
<circle fill="#E72D2D" cx="318.5" cy="318.5" r="318.5"/>
<g>
	<path fill="#FFFFFF" d="M246.8,498.6v7.7c0,4.7,3.8,8.6,8.6,8.6h8.6v17.3c0,9.5,7.7,17.1,17.1,17.1h8.4c9.5,0,17.1-7.7,17.1-17.1
		v-17.3h23.8v17.3c0,9.5,7.7,17.1,17.1,17.1h8.4c9.5,0,17.1-7.7,17.1-17.1v-17.3h8.6c4.7,0,8.6-3.9,8.6-8.6v-7.7H246.8z M298,532.2
		c0,4.7-3.8,8.6-8.6,8.6H281c-4.7,0-8.6-3.8-8.6-8.6v-17.3H298V532.2z M364.5,532.2c0,4.7-3.8,8.6-8.6,8.6h-8.4
		c-4.7,0-8.6-3.8-8.6-8.6v-17.3h25.5V532.2z"/>
	<g>
		<path fill="#FFFFFF" d="M318.5,399.3c-15.5,0-28,12.6-28,28c0,15.5,12.6,28,28,28c15.5,0,28-12.6,28-28
			C346.5,411.8,334,399.3,318.5,399.3z M318.5,446.8c-10.7,0-19.5-8.7-19.5-19.5c0-10.7,8.7-19.5,19.5-19.5
			c10.7,0,19.5,8.7,19.5,19.5C338,438,329.2,446.8,318.5,446.8z"/>
		<path fill="#FFFFFF" d="M318.5,325.1c-15.5,0-28,12.6-28,28s12.6,28,28,28c15.5,0,28-12.6,28-28S334,325.1,318.5,325.1z
			 M318.5,372.6c-10.7,0-19.5-8.7-19.5-19.5c0-10.7,8.7-19.5,19.5-19.5c10.7,0,19.5,8.7,19.5,19.5
			C338,363.8,329.2,372.6,318.5,372.6z"/>
		<path fill="#FFFFFF" d="M434.1,87.7H202.9c-28.3,0-51.4,23.1-51.4,51.4v299.6c0,28.3,23.1,51.4,51.4,51.4h231.1
			c28.3,0,51.4-23.1,51.4-51.4V139.1C485.4,110.8,462.3,87.7,434.1,87.7z M375,481.2H262V355.7c0-31.1,25.4-56.5,56.5-56.5h0
			c31.1,0,56.5,25.4,56.5,56.5V481.2z M461.8,159.3h-91.3v-28h91.3V159.3z"/>
	</g>
</g>
</svg>
